<svg width="42" height="42" viewBox="0 0 42 42" fill="none" xmlns="http://www.w3.org/2000/svg">
<path d="M39.2692 13.6484C38.4128 11.5869 36.677 9.3614 35.3144 8.65839C36.4235 10.833 37.065 13.0143 37.3103 14.6418C37.3103 14.6418 37.3103 14.6532 37.3144 14.6746C35.0856 9.11777 31.3056 6.87668 28.2187 1.99828C28.0621 1.75218 27.9062 1.50609 27.7536 1.24277C27.6675 1.09429 27.5978 0.959762 27.5371 0.832613C27.4091 0.585948 27.3103 0.325254 27.2426 0.0557775C27.2431 0.0429808 27.2389 0.0304408 27.2307 0.020589C27.2225 0.0107373 27.211 0.00427571 27.1983 0.00245723C27.1862 -0.000819077 27.1735 -0.000819077 27.1614 0.00245723C27.1581 0.00394277 27.1551 0.00587542 27.1523 0.00819942C27.1474 0.00819942 27.1425 0.0139416 27.1376 0.0155822L27.1458 0.00491817C22.1936 2.90554 20.5136 8.27121 20.3593 10.9561C18.3804 11.0914 16.4882 11.8201 14.9297 13.0471C14.7668 12.9093 14.5965 12.7806 14.4195 12.6615C13.9703 11.0892 13.9513 9.42516 14.3645 7.843C12.3391 8.76585 10.7641 10.2219 9.61898 11.5106H9.60996C8.8282 10.5205 8.88316 7.25484 8.92746 6.57316C8.91844 6.5305 8.34504 6.87093 8.27121 6.92261C7.58138 7.41473 6.93655 7.96705 6.3443 8.57308C5.67033 9.25638 5.0546 9.99477 4.50352 10.7805C3.23564 12.5774 2.33648 14.6076 1.85801 16.7541C1.84898 16.7967 1.84078 16.841 1.83176 16.8845C1.79484 17.0576 1.66113 17.9263 1.63734 18.115V18.1584C1.46303 19.056 1.35446 19.9652 1.3125 20.8786V20.9795C1.3125 31.8667 10.1391 40.6932 21.0262 40.6932C30.7773 40.6932 38.873 33.6139 40.4586 24.3149C40.4914 24.063 40.5185 23.8087 40.548 23.5544C40.9402 20.1731 40.5046 16.6195 39.2692 13.6484ZM16.5465 29.0801C16.6384 29.1236 16.7253 29.1719 16.8197 29.2146L16.8328 29.2228C16.7385 29.1769 16.6425 29.1293 16.5473 29.0801H16.5465ZM37.316 14.6836V14.6647V14.686V14.6836Z" fill="url(#paint0_linear_7_374)"/>
<path d="M39.2692 13.6482C38.4128 11.5867 36.677 9.36121 35.3144 8.6582C36.4235 10.8329 37.065 13.0141 37.3103 14.6416V14.6818C39.1707 19.725 38.1568 24.8536 36.6967 27.9872C34.4375 32.8353 28.9685 37.8047 20.4069 37.5627C11.1644 37.3002 3.01627 30.4334 1.49459 21.4469C1.21732 20.0286 1.49459 19.3091 1.63404 18.1582C1.46424 19.045 1.39943 19.3018 1.31494 20.8784V20.9793C1.31494 31.8665 10.1415 40.693 21.0287 40.693C30.7797 40.693 38.8754 33.6137 40.4611 24.3147C40.4939 24.0628 40.521 23.8086 40.5505 23.5543C40.9401 20.1729 40.5046 16.6193 39.2692 13.6482Z" fill="url(#paint1_radial_7_374)"/>
<path d="M39.2692 13.6482C38.4128 11.5867 36.677 9.36121 35.3144 8.6582C36.4235 10.8329 37.065 13.0141 37.3103 14.6416V14.6818C39.1707 19.725 38.1568 24.8536 36.6967 27.9872C34.4375 32.8353 28.9685 37.8047 20.4069 37.5627C11.1644 37.3002 3.01627 30.4334 1.49459 21.4469C1.21732 20.0286 1.49459 19.3091 1.63404 18.1582C1.46424 19.045 1.39943 19.3018 1.31494 20.8784V20.9793C1.31494 31.8665 10.1415 40.693 21.0287 40.693C30.7797 40.693 38.8754 33.6137 40.4611 24.3147C40.4939 24.0628 40.521 23.8086 40.5505 23.5543C40.9401 20.1729 40.5046 16.6193 39.2692 13.6482Z" fill="url(#paint2_radial_7_374)"/>
<path d="M29.6886 15.9649C29.7321 15.9952 29.7707 16.0256 29.8117 16.0559C29.3169 15.1774 28.7005 14.3732 27.9807 13.6672C21.853 7.53945 26.3746 0.379766 27.1366 0.0155469L27.1448 0.00488281C22.1926 2.90551 20.5126 8.27117 20.3584 10.9561C20.5881 10.9405 20.817 10.9208 21.0507 10.9208C24.7463 10.9208 27.9652 12.9535 29.6886 15.9649Z" fill="url(#paint3_radial_7_374)"/>
<path d="M21.0632 17.1889C21.0312 17.6811 19.2987 19.371 18.6925 19.371C13.0865 19.371 12.1768 22.7621 12.1768 22.7621C12.4229 25.6185 14.4129 27.9703 16.8205 29.2147C16.9305 29.2713 17.0412 29.3222 17.1487 29.373C17.3414 29.4551 17.535 29.5371 17.7278 29.6101C18.5535 29.9013 19.4181 30.0672 20.2929 30.1023C30.1186 30.5633 32.0234 18.3538 24.9318 14.8084C26.7471 14.4926 28.6322 15.2235 29.6847 15.9626C27.962 12.9512 24.7423 10.9185 21.0468 10.9185C20.813 10.9185 20.5841 10.9381 20.3545 10.9537C18.377 11.0907 16.4866 11.8202 14.9297 13.0472C15.2308 13.3023 15.5704 13.6419 16.2849 14.3457C17.6253 15.6681 21.0558 17.029 21.0632 17.1889Z" fill="url(#paint4_radial_7_374)"/>
<path d="M21.0632 17.1889C21.0312 17.6811 19.2987 19.371 18.6925 19.371C13.0865 19.371 12.1768 22.7621 12.1768 22.7621C12.4229 25.6185 14.4129 27.9703 16.8205 29.2147C16.9305 29.2713 17.0412 29.3222 17.1487 29.373C17.3414 29.4551 17.535 29.5371 17.7278 29.6101C18.5535 29.9013 19.4181 30.0672 20.2929 30.1023C30.1186 30.5633 32.0234 18.3538 24.9318 14.8084C26.7471 14.4926 28.6322 15.2235 29.6847 15.9626C27.962 12.9512 24.7423 10.9185 21.0468 10.9185C20.813 10.9185 20.5841 10.9381 20.3545 10.9537C18.377 11.0907 16.4866 11.8202 14.9297 13.0472C15.2308 13.3023 15.5704 13.6419 16.2849 14.3457C17.6253 15.6681 21.0558 17.029 21.0632 17.1889Z" fill="url(#paint5_radial_7_374)"/>
<path d="M14.0134 12.3914C14.1733 12.4948 14.3046 12.5817 14.4235 12.6613C13.9744 11.089 13.9554 9.42493 14.3686 7.84277C12.3432 8.76562 10.7682 10.2217 9.62305 11.5104C9.71574 11.5079 12.5754 11.4562 14.0134 12.3914Z" fill="url(#paint6_radial_7_374)"/>
<path d="M1.49456 21.4469C3.01624 30.4334 11.1644 37.3002 20.4134 37.5627C28.975 37.8047 34.4408 32.8353 36.7032 27.9872C38.1633 24.8528 39.1773 19.7251 37.3168 14.6818V14.644C37.3168 14.649 37.3168 14.6555 37.3209 14.6769C38.0198 19.2435 35.6975 23.6675 32.0668 26.6592C32.063 26.6675 32.0595 26.676 32.0561 26.6846C24.9809 32.4456 18.2109 30.1602 16.8401 29.2276C16.745 29.1816 16.649 29.134 16.5539 29.0848C12.4285 27.1161 10.7247 23.3549 11.0898 20.1319C7.60753 20.1319 6.41972 17.1936 6.41972 17.1936C6.41972 17.1936 9.54675 14.964 13.668 16.9032C17.4849 18.6997 21.0697 17.1944 21.0697 17.1936C21.0623 17.0336 17.6317 15.6686 16.2938 14.3504C15.5793 13.6465 15.2397 13.3069 14.9387 13.0518C14.7758 12.9141 14.6054 12.7854 14.4284 12.6663C14.3111 12.5842 14.1823 12.5022 14.0183 12.3964C12.5803 11.4612 9.72065 11.5129 9.62632 11.5154H9.61729C8.83554 10.5253 8.8905 7.25959 8.93479 6.57791C8.92577 6.53525 8.35237 6.87568 8.27854 6.92736C7.58872 7.41948 6.94389 7.9718 6.35163 8.57783C5.67767 9.26113 5.06193 9.99952 4.51085 10.7853C3.24297 12.5821 2.34381 14.6124 1.86534 16.7588C1.84976 16.7965 1.14839 19.8588 1.49456 21.4469Z" fill="url(#paint7_radial_7_374)"/>
<path d="M27.9808 13.6672C28.7005 14.3733 29.317 15.1775 29.8117 16.056C29.9142 16.133 30.0128 16.2151 30.107 16.3021C34.5761 20.4168 32.2382 26.2418 32.0602 26.6602C35.6909 23.6685 38.0132 19.2445 37.3143 14.6778C35.0855 9.11777 31.3055 6.87668 28.2187 1.99828C28.062 1.75218 27.9061 1.50609 27.7536 1.24277C27.6674 1.09429 27.5977 0.959762 27.537 0.832613C27.4091 0.585948 27.3102 0.325254 27.2425 0.0557775C27.243 0.0429808 27.2388 0.0304408 27.2306 0.020589C27.2224 0.0107373 27.2109 0.00427571 27.1982 0.00245723C27.1861 -0.000819077 27.1734 -0.000819077 27.1613 0.00245723C27.158 0.00394277 27.155 0.00587542 27.1523 0.00819942C27.1473 0.00819942 27.1424 0.0139416 27.1375 0.0155822C26.3746 0.379801 21.853 7.53949 27.9808 13.6672Z" fill="url(#paint8_radial_7_374)"/>
<path d="M30.1055 16.2977C30.0113 16.2108 29.9127 16.1286 29.8102 16.0516C29.77 16.0213 29.7282 15.9909 29.6871 15.9606C28.6347 15.2223 26.7496 14.4906 24.9342 14.8064C32.025 18.3518 30.1211 30.5613 20.2954 30.1003C19.4206 30.0652 18.5559 29.8993 17.7303 29.6081C17.5375 29.5359 17.3439 29.4564 17.1511 29.3711C17.0396 29.3202 16.9288 29.2693 16.823 29.2127L16.8361 29.2209C18.2069 30.1561 24.9769 32.4415 32.0521 26.678C32.0521 26.678 32.0562 26.6673 32.0628 26.6525C32.2383 26.2416 34.5762 20.4165 30.1055 16.2977Z" fill="url(#paint9_radial_7_374)"/>
<path d="M12.1766 22.7621C12.1766 22.7621 13.0863 19.3709 18.6923 19.3709C19.2986 19.3709 21.0311 17.6794 21.063 17.1889C21.095 16.6983 17.4783 18.695 13.6614 16.8985C9.54012 14.9593 6.41309 17.1889 6.41309 17.1889C6.41309 17.1889 7.6009 20.1272 11.0831 20.1272C10.7181 23.3502 12.4219 27.1081 16.5472 29.0801C16.6391 29.1236 16.7261 29.172 16.8204 29.2147C14.4128 27.9727 12.4252 25.6184 12.1766 22.7621Z" fill="url(#paint10_radial_7_374)"/>
<path d="M39.2692 13.6484C38.4128 11.5869 36.677 9.3614 35.3144 8.65839C36.4235 10.833 37.065 13.0143 37.3103 14.6418C37.3103 14.6418 37.3103 14.6532 37.3144 14.6746C35.0856 9.11777 31.3056 6.87668 28.2187 1.99828C28.0621 1.75218 27.9062 1.50609 27.7536 1.24277C27.6675 1.09429 27.5978 0.959762 27.5371 0.832613C27.4091 0.585948 27.3103 0.325254 27.2426 0.0557775C27.2431 0.0429808 27.2389 0.0304408 27.2307 0.020589C27.2225 0.0107373 27.211 0.00427571 27.1983 0.00245723C27.1862 -0.000819077 27.1735 -0.000819077 27.1614 0.00245723C27.1581 0.00394277 27.1551 0.00587542 27.1523 0.00819942C27.1474 0.00819942 27.1425 0.0139416 27.1376 0.0155822L27.1458 0.00491817C22.1936 2.90554 20.5136 8.27121 20.3593 10.9561C20.589 10.9405 20.8179 10.9208 21.0517 10.9208C24.7472 10.9208 27.9661 12.9535 29.6896 15.9649C28.6371 15.2266 26.752 14.4949 24.9367 14.8107C32.0275 18.3561 30.1235 30.5657 20.2978 30.1046C19.423 30.0696 18.5584 29.9037 17.7327 29.6125C17.5399 29.5403 17.3463 29.4607 17.1536 29.3754C17.042 29.3245 16.9312 29.2737 16.8254 29.2171L16.8386 29.2253C16.7434 29.1793 16.6474 29.1318 16.5523 29.0825C16.6441 29.126 16.7311 29.1744 16.8254 29.2171C14.4129 27.9727 12.4253 25.6184 12.1767 22.762C12.1767 22.762 13.0864 19.3709 18.6925 19.3709C19.2987 19.3709 21.0312 17.6794 21.0632 17.1888C21.0558 17.0289 17.6252 15.6639 16.2873 14.3456C15.5728 13.6418 15.2332 13.3022 14.9321 13.0471C14.7692 12.9093 14.5989 12.7806 14.4219 12.6615C13.9728 11.0892 13.9538 9.42516 14.367 7.843C12.3416 8.76585 10.7666 10.2219 9.62144 11.5106H9.61242C8.83066 10.5205 8.88562 7.25484 8.92992 6.57316C8.9209 6.5305 8.3475 6.87093 8.27367 6.92261C7.58385 7.41473 6.93902 7.96705 6.34676 8.57308C5.67279 9.25638 5.05706 9.99477 4.50598 10.7805C3.2381 12.5774 2.33894 14.6076 1.86047 16.7541C1.85145 16.7967 1.84324 16.841 1.83422 16.8845C1.7973 17.0576 1.62996 17.9386 1.60699 18.1273C1.60699 18.1133 1.60699 18.142 1.60699 18.1273C1.4534 19.0376 1.35505 19.9564 1.3125 20.8786V20.9795C1.3125 31.8667 10.1391 40.6932 21.0262 40.6932C30.7773 40.6932 38.873 33.6139 40.4586 24.3149C40.4914 24.063 40.5185 23.8087 40.548 23.5544C40.9402 20.1731 40.5046 16.6195 39.2692 13.6484Z" fill="url(#paint11_linear_7_374)"/>
<defs>
<linearGradient id="paint0_linear_7_374" x1="36.6598" y1="6.3041" x2="3.93258" y2="37.8796" gradientUnits="userSpaceOnUse">
<stop offset="0.05" stop-color="#FFF44F"/>
<stop offset="0.11" stop-color="#FFE847"/>
<stop offset="0.22" stop-color="#FFC830"/>
<stop offset="0.37" stop-color="#FF980E"/>
<stop offset="0.4" stop-color="#FF8B16"/>
<stop offset="0.46" stop-color="#FF672A"/>
<stop offset="0.53" stop-color="#FF3647"/>
<stop offset="0.7" stop-color="#E31587"/>
</linearGradient>
<radialGradient id="paint1_radial_7_374" cx="0" cy="0" r="1" gradientUnits="userSpaceOnUse" gradientTransform="translate(35.1471 4.51645) scale(41.0985 41.0985)">
<stop offset="0.13" stop-color="#FFBD4F"/>
<stop offset="0.19" stop-color="#FFAC31"/>
<stop offset="0.25" stop-color="#FF9D17"/>
<stop offset="0.28" stop-color="#FF980E"/>
<stop offset="0.4" stop-color="#FF563B"/>
<stop offset="0.47" stop-color="#FF3750"/>
<stop offset="0.71" stop-color="#F5156C"/>
<stop offset="0.78" stop-color="#EB0878"/>
<stop offset="0.86" stop-color="#E50080"/>
</radialGradient>
<radialGradient id="paint2_radial_7_374" cx="0" cy="0" r="1" gradientUnits="userSpaceOnUse" gradientTransform="translate(20.1296 21.3181) scale(41.0985 41.0985)">
<stop offset="0.3" stop-color="#960E18"/>
<stop offset="0.35" stop-color="#B11927" stop-opacity="0.74"/>
<stop offset="0.43" stop-color="#DB293D" stop-opacity="0.34"/>
<stop offset="0.5" stop-color="#F5334B" stop-opacity="0.09"/>
<stop offset="0.53" stop-color="#FF3750" stop-opacity="0"/>
</radialGradient>
<radialGradient id="paint3_radial_7_374" cx="0" cy="0" r="1" gradientUnits="userSpaceOnUse" gradientTransform="translate(25.085 -4.81035) scale(29.7741 29.7741)">
<stop offset="0.13" stop-color="#FFF44F"/>
<stop offset="0.25" stop-color="#FFDC3E"/>
<stop offset="0.51" stop-color="#FF9D12"/>
<stop offset="0.53" stop-color="#FF980E"/>
</radialGradient>
<radialGradient id="paint4_radial_7_374" cx="0" cy="0" r="1" gradientUnits="userSpaceOnUse" gradientTransform="translate(15.5843 32.0538) scale(19.5686)">
<stop offset="0.35" stop-color="#3A8EE6"/>
<stop offset="0.47" stop-color="#5C79F0"/>
<stop offset="0.67" stop-color="#9059FF"/>
<stop offset="1" stop-color="#C139E6"/>
</radialGradient>
<radialGradient id="paint5_radial_7_374" cx="0" cy="0" r="1" gradientUnits="userSpaceOnUse" gradientTransform="translate(20.7199 16.434) rotate(-13.8972) scale(10.3675 12.1794)">
<stop offset="0.21" stop-color="#9059FF" stop-opacity="0"/>
<stop offset="0.28" stop-color="#8C4FF3" stop-opacity="0.06"/>
<stop offset="0.75" stop-color="#7716A8" stop-opacity="0.45"/>
<stop offset="0.97" stop-color="#6E008B" stop-opacity="0.6"/>
</radialGradient>
<radialGradient id="paint6_radial_7_374" cx="0" cy="0" r="1" gradientUnits="userSpaceOnUse" gradientTransform="translate(19.6104 2.83476) scale(14.0782)">
<stop stop-color="#FFE226"/>
<stop offset="0.12" stop-color="#FFDB27"/>
<stop offset="0.3" stop-color="#FFC82A"/>
<stop offset="0.5" stop-color="#FFA930"/>
<stop offset="0.73" stop-color="#FF7E37"/>
<stop offset="0.79" stop-color="#FF7139"/>
</radialGradient>
<radialGradient id="paint7_radial_7_374" cx="0" cy="0" r="1" gradientUnits="userSpaceOnUse" gradientTransform="translate(30.6764 -6.09428) scale(60.0641)">
<stop offset="0.11" stop-color="#FFF44F"/>
<stop offset="0.46" stop-color="#FF980E"/>
<stop offset="0.62" stop-color="#FF5634"/>
<stop offset="0.72" stop-color="#FF3647"/>
<stop offset="0.9" stop-color="#E31587"/>
</radialGradient>
<radialGradient id="paint8_radial_7_374" cx="0" cy="0" r="1" gradientUnits="userSpaceOnUse" gradientTransform="translate(24.8704 0.468314) rotate(84.2321) scale(43.7808 28.7642)">
<stop stop-color="#FFF44F"/>
<stop offset="0.06" stop-color="#FFE847"/>
<stop offset="0.17" stop-color="#FFC830"/>
<stop offset="0.3" stop-color="#FF980E"/>
<stop offset="0.36" stop-color="#FF8B16"/>
<stop offset="0.45" stop-color="#FF672A"/>
<stop offset="0.57" stop-color="#FF3647"/>
<stop offset="0.74" stop-color="#E31587"/>
</radialGradient>
<radialGradient id="paint9_radial_7_374" cx="0" cy="0" r="1" gradientUnits="userSpaceOnUse" gradientTransform="translate(19.279 8.04867) scale(37.4981)">
<stop offset="0.14" stop-color="#FFF44F"/>
<stop offset="0.48" stop-color="#FF980E"/>
<stop offset="0.59" stop-color="#FF5634"/>
<stop offset="0.66" stop-color="#FF3647"/>
<stop offset="0.9" stop-color="#E31587"/>
</radialGradient>
<radialGradient id="paint10_radial_7_374" cx="0" cy="0" r="1" gradientUnits="userSpaceOnUse" gradientTransform="translate(29.1776 10.2441) scale(41.0419 41.0419)">
<stop offset="0.09" stop-color="#FFF44F"/>
<stop offset="0.23" stop-color="#FFE141"/>
<stop offset="0.51" stop-color="#FFAF1E"/>
<stop offset="0.63" stop-color="#FF980E"/>
</radialGradient>
<linearGradient id="paint11_linear_7_374" x1="36.266" y1="6.13511" x2="8.41968" y2="33.9823" gradientUnits="userSpaceOnUse">
<stop offset="0.17" stop-color="#FFF44F" stop-opacity="0.8"/>
<stop offset="0.27" stop-color="#FFF44F" stop-opacity="0.63"/>
<stop offset="0.49" stop-color="#FFF44F" stop-opacity="0.22"/>
<stop offset="0.6" stop-color="#FFF44F" stop-opacity="0"/>
</linearGradient>
</defs>
</svg>
