<svg width="48" height="48" viewBox="0 0 48 48" fill="none" xmlns="http://www.w3.org/2000/svg">
<rect width="48" height="48" rx="10" fill="#013DC4"/>
<path d="M38.25 17.6667C38.2494 17.1113 38.1028 16.5659 37.8249 16.0852C37.547 15.6044 37.1476 15.2052 36.6667 14.9275L25.5833 8.59416C25.1019 8.31623 24.5559 8.16991 24 8.16991C23.4441 8.16991 22.8981 8.31623 22.4167 8.59416L11.3333 14.9275C10.8524 15.2052 10.453 15.6044 10.1751 16.0852C9.89716 16.5659 9.75057 17.1113 9.75 17.6667V30.3333C9.75057 30.8886 9.89716 31.434 10.1751 31.9148C10.453 32.3956 10.8524 32.7948 11.3333 33.0725L22.4167 39.4058C22.8981 39.6838 23.4441 39.8301 24 39.8301C24.5559 39.8301 25.1019 39.6838 25.5833 39.4058L36.6667 33.0725C37.1476 32.7948 37.547 32.3956 37.8249 31.9148C38.1028 31.434 38.2494 30.8886 38.25 30.3333V17.6667Z" stroke="#E2E8F0" stroke-width="3" stroke-linecap="round" stroke-linejoin="round"/>
<path d="M10.225 16.0833L24 24L37.775 16.0833" stroke="#E2E8F0" stroke-width="3" stroke-linecap="round" stroke-linejoin="round"/>
<path d="M24 39.8333V24" stroke="#E2E8F0" stroke-width="3" stroke-linecap="round" stroke-linejoin="round"/>
</svg>
